<?xml version='1.0' encoding='utf-8'?>
<svg xmlns="http://www.w3.org/2000/svg" viewBox="0 0 560 1150" width="560" height="1150"><g id="arm-chest" data-part-kind="arm" data-pose-reference="natural-hand-pose-reference.png" data-pose="relaxed-open-palm">
    <path id="chest-hand" d="M 455.8 866.4 C 451.48 853.44 450.04 836.16 455.8 823.2 C 460.12 811.68 468.76 813.12 473.08 821.76 L 475.96 837.6 C 484.6 824.64 500.44 810.24 510.52 814.56 C 520.6 818.88 514.84 827.52 504.76 837.6 C 517.72 828.96 527.8 823.2 535.0 830.4 C 542.2 839.04 532.12 847.68 523.48 854.88 C 535.0 849.12 543.64 850.56 547.96 857.76 C 553.72 867.84 536.44 883.68 517.72 898.08 L500 927 C480 918 462 897 452 878 Z" fill="#ffe9d9" stroke="#090c09" stroke-width="7" stroke-linecap="round" stroke-linejoin="round" />
    <path id="chest-sleeve" d="M403 836 C367 841 315 866 301.72 909.6 C283 955.68 294.52 1001.76 330.52 1020.48 C372.28 1040.64 431.32 1023.36 468.76 987.36 C486.04 968.64 496.12 945.6 496.12 922.56 L444.28 849.12 C431 841 418 836 403 836 Z" fill="#fcfcfc" stroke="none" stroke-width="7" stroke-linecap="round" stroke-linejoin="round" />
    <path id="chest-sleeve-contour" d="M403 836 C367 841 315 866 301.72 909.6 C283 955.68 294.52 1001.76 330.52 1020.48 C372.28 1040.64 431.32 1023.36 468.76 987.36 C486.04 968.64 496.12 945.6 496.12 922.56" fill="none" stroke="#090c09" stroke-width="7" stroke-linecap="round" stroke-linejoin="round" />
    <path id="chest-fold" d="M362 865 C343 879 332 900 328 921" fill="none" stroke="#a1d9c0" stroke-width="4" stroke-linecap="round" stroke-linejoin="round" />
    <g id="chest-paw" transform="translate(386.68 938.4) scale(.82)">
      <path id="chest-paw-shape" d="M-6 -24 C-6 -40 8 -43 15 -33 C20 -26 17 -23 18 -21 C29 -27 38 -20 36 -11 C34 -3 25 0 20 -1 C28 12 17 30 2 31 C-18 33 -31 20 -31 3 C-31 -14 -20 -28 -6 -24 Z" fill="#a7e7cb" stroke="#4a9b74" stroke-width="5.5" stroke-linecap="round" stroke-linejoin="round" />
    </g>
    <path id="chest-cuff" d="M 439.96 844.8 C 454.36 869.28 483.16 898.08 513.4 908.16 C 509.08 925.44 499.0 938.4 488.92 944.16 C 455.8 934.08 424.12 900.96 415.48 863.52 C 419.8 853.44 431.32 847.68 439.96 844.8 Z" fill="#a7e7cb" stroke="#090c09" stroke-width="7" stroke-linecap="round" stroke-linejoin="round" />
  </g>
  </svg>